<?xml version="1.0" encoding="UTF-8"?>
<svg width="29px" height="23px" viewBox="0 0 29 23" version="1.1" xmlns="http://www.w3.org/2000/svg" xmlns:xlink="http://www.w3.org/1999/xlink">
    <title>Check Icon</title>
    <g id="Wireframe" stroke="none" stroke-width="1" fill="none" fill-rule="evenodd">
        <g id="Home---Shipper:-Active-Order-Modal" transform="translate(-130.000000, -340.000000)" fill="#6DD400" fill-rule="nonzero">
            <g id="Check-Icon" transform="translate(130.000000, 340.000000)">
                <path d="M28.5124661,3.17287847 L26.2773252,0.909878468 C25.9522551,0.580828801 25.5659854,0.416267943 25.1188718,0.416267943 C24.6723276,0.416267943 24.2857732,0.580828801 23.9609878,0.909878468 L10.8154355,14.2192062 L5.47227507,8.80908787 C5.1471339,8.47982205 4.76100651,8.31547734 4.31417757,8.31547734 C3.86727747,8.31547734 3.48129241,8.47982205 3.15608007,8.80908787 L0.921223738,11.0717997 C0.596153726,11.4009214 0.433476395,11.7918615 0.433476395,12.244548 C0.433476395,12.6970183 0.596153726,13.0878143 0.921223738,13.4170801 L9.65762264,22.2623703 C9.98276382,22.5917082 10.3688912,22.7559809 10.8157201,22.7559809 C11.2625491,22.7559809 11.6486053,22.5917802 11.9738176,22.2623703 L28.5122527,5.5178707 C28.8371092,5.18882103 29,4.79780887 29,4.34533856 C29,3.89286825 28.8375362,3.50192814 28.5124661,3.17287847 Z" id="Path"></path>
            </g>
        </g>
    </g>
</svg>