<?xml version="1.0" encoding="UTF-8"?>
<svg width="152px" height="172px" viewBox="0 0 152 172" version="1.1" xmlns="http://www.w3.org/2000/svg" xmlns:xlink="http://www.w3.org/1999/xlink">
    <title>blue-book</title>
    <g id="blue-book" stroke="none" stroke-width="1" fill="none" fill-rule="evenodd">
        <rect fill="#FFFFFF" x="0" y="0" width="152" height="172"></rect>
        <path d="M85.2370342,82.8171363 C85.62309,83.5668673 86.391111,84 87.1852099,84 C87.5168089,84 87.8571005,83.9240875 88.1736151,83.7638843 C88.3022152,83.698889 101.143812,77.2209396 107.477173,75.2342669 C108.624858,74.8724767 109.261723,73.6548304 108.897398,72.5153816 C108.53512,71.3756789 107.317893,70.7409592 106.15947,71.1007183 C99.487863,73.1958011 86.7337036,79.6303356 86.1927141,79.9032651 C85.1191721,80.444808 84.6916984,81.7492839 85.2370342,82.8171363 Z" id="Path" fill="#0055A5" fill-rule="nonzero"></path>
        <path d="M87.1851672,58 C87.5167668,58 87.857059,57.9240875 88.1735743,57.7638843 C88.3021746,57.698889 101.143797,51.2209396 107.47717,49.2342669 C108.624858,48.8724767 109.261723,47.6548304 108.897398,46.5153816 C108.535119,45.3756789 107.31789,44.7409592 106.159465,45.1007183 C99.4878444,47.1958011 86.73366,53.6303356 86.1926694,53.9032651 C85.119381,54.444808 84.6916508,55.74903 85.2369876,56.8171363 C85.6230442,57.5666134 86.3910667,58 87.1851672,58 Z" id="Path" fill="#0055A5" fill-rule="nonzero"></path>
        <path d="M138.833168,53.5007104 C137.634987,53.5007104 136.66659,54.4713844 136.66659,55.667271 L136.66659,140.166435 C136.66659,143.750033 133.750229,146.666371 130.166603,146.666371 L78.1667048,146.666371 L78.1667048,141.680971 C81.3258001,140.575982 89.5546317,137.999875 97.6666667,137.999875 C116.540497,137.999875 129.35639,142.179384 129.484105,142.222548 C130.136134,142.439128 130.864336,142.330965 131.434101,141.923449 C131.999549,141.516188 132.333181,140.861878 132.333181,140.166181 L132.333181,44.8342141 C132.333181,43.8180914 131.6291,42.9383149 130.636583,42.7194499 C130.636583,42.7194499 128.937953,42.3403716 126.034541,41.8071738 C124.862258,41.5905939 123.729331,42.3705861 123.512495,43.5448909 C123.295913,44.7235121 124.073627,45.8523681 125.250226,46.068948 C126.357509,46.2725788 127.284773,46.4523427 127.999771,46.5955444 L127.999771,137.286913 C123.089996,135.999875 112.187537,133.6665 97.6664128,133.6665 C88.2261968,133.6665 78.9530509,136.766918 76.0841698,137.817826 C73.5339404,136.691255 65.8251078,133.6665 56.4996572,133.6665 C41.5755848,133.6665 29.281976,136.127842 23.9997207,137.378064 L23.9997207,46.5109944 C28.3265287,45.4471377 41.1056053,42.6673996 56.4996572,42.6673996 C64.399427,42.6673996 71.1743942,45.1264573 73.8330413,46.2380479 L73.8330413,131.499939 C73.8330413,132.279931 74.2532554,133.001526 74.9314376,133.38492 C75.6096199,133.7706 76.4459855,133.759682 77.1155349,133.356737 C77.3300853,133.229023 98.797309,120.406631 117.850905,114.056244 C118.737036,113.759431 119.332952,112.93399 119.332952,112.000132 L119.332952,23.1675925 C119.332952,22.4569159 118.984086,21.7916881 118.399087,21.3867117 C117.818405,20.9814813 117.073191,20.8882986 116.403642,21.1376321 C99.0682264,27.639599 81.5271474,38.5551747 81.3514446,38.6635916 C80.337345,39.2983509 80.02758,40.6351541 80.6623444,41.6492456 C81.2950775,42.6633372 82.6318913,42.9730997 83.6480222,42.3383404 C83.8082367,42.236525 99.0682264,32.7423025 114.999543,26.3355494 L114.999543,110.449034 C100.209787,115.588299 84.7680005,123.979818 78.1661969,127.736578 L78.1661969,44.8342141 C78.1661969,44.0130894 77.702565,43.2633117 76.9680157,42.8951513 C76.595282,42.7110711 67.7164517,38.3342784 56.4996572,38.3342784 C36.9217462,38.3342784 21.8699592,42.5701545 21.2372261,42.7519496 C20.3076771,43.0162634 19.6663112,43.8678565 19.6663112,44.8342141 L19.6663112,140.166689 C19.6663112,140.844866 19.9869942,141.486227 20.5265439,141.895774 C20.9079103,142.183954 21.3672258,142.333504 21.8331429,142.333504 C22.0324589,142.333504 22.2317749,142.30532 22.4267746,142.248954 C22.576325,142.207821 37.5587958,138.000129 56.4996572,138.000129 C64.4210089,138.000129 71.1896285,140.465788 73.8330413,141.572808 L73.8330413,146.666625 L21.8331429,146.666625 C18.2495171,146.666625 15.3331556,143.750287 15.3331556,140.166689 L15.3331556,55.6675249 C15.3331556,54.4716383 14.3624739,53.5009643 13.1665778,53.5009643 C11.9706817,53.5009643 11,54.4716383 11,55.6675249 L11,140.166689 C11,146.140029 15.8597561,151 21.8333968,151 L130.166603,151 C136.13999,151 141,146.140282 141,140.166689 L141,55.6675249 C141,54.4713844 140.03135,53.5007104 138.833168,53.5007104 Z" id="Path" fill="#0055A5" fill-rule="nonzero"></path>
        <path d="M85.2370342,69.8171363 C85.62309,70.5668673 86.391111,71 87.1852099,71 C87.5168089,71 87.8571005,70.9240875 88.1736151,70.7638843 C88.3022152,70.698889 101.143812,64.2209396 107.477173,62.2342669 C108.624858,61.8724767 109.261723,60.6548304 108.897398,59.5153816 C108.53512,58.3756789 107.317893,57.7409592 106.15947,58.1007183 C99.487863,60.1958011 86.7337036,66.6303356 86.1927141,66.9032651 C85.1191721,67.444808 84.6916984,68.7492839 85.2370342,69.8171363 Z" id="Path" fill="#0055A5" fill-rule="nonzero"></path>
        <path d="M85.2370342,95.8171363 C85.62309,96.5668673 86.391111,97 87.1852099,97 C87.5168089,97 87.8571005,96.9240875 88.1736151,96.7638843 C88.3022152,96.698889 101.143812,90.2209396 107.477173,88.2342669 C108.624858,87.8724767 109.261723,86.6548304 108.897398,85.5153816 C108.53512,84.3756789 107.317893,83.7409592 106.15947,84.1007183 C99.487863,86.1958011 86.7337036,92.6303356 86.1927141,92.9032651 C85.1191721,93.444808 84.6916984,94.7492839 85.2370342,95.8171363 Z" id="Path" fill="#0055A5" fill-rule="nonzero"></path>
        <path d="M63.3002457,61.1083566 C49.7161973,58.2057186 34.2796263,61.9036771 33.6307536,62.0618961 C32.4582971,62.3482866 31.7609587,63.4459603 32.0754699,64.5156992 C32.3394531,65.4110215 33.2280761,66 34.1984205,66 C34.3876429,66 34.5789276,65.9779338 34.77047,65.9319236 C34.9179294,65.8938947 49.7801307,62.3342018 62.297419,65.0084316 C63.474258,65.2589059 64.6645025,64.591757 64.9416333,63.5140367 C65.2185062,62.4384292 64.4837874,61.3607089 63.3002457,61.1083566 Z" id="Path" fill="#0055A5" fill-rule="nonzero"></path>
        <path d="M63.3002457,74.1076064 C49.7161973,71.2066362 34.2796263,74.9030488 33.6307536,75.0612921 C32.4582971,75.3477265 31.7609587,76.4458033 32.0754699,77.5154715 C32.3394531,78.4109312 33.2280761,79 34.1984205,79 C34.3876429,79 34.5789276,78.9779305 34.77047,78.9319131 C34.9179294,78.8938784 49.7801307,75.3336396 62.297419,78.0082796 C63.474258,78.2587923 64.6645025,77.591541 64.9416333,76.5136554 C65.2185062,75.4378829 64.4837874,74.3599973 63.3002457,74.1076064 Z" id="Path" fill="#0055A5" fill-rule="nonzero"></path>
        <path d="M85.2370342,108.817134 C85.62309,109.566867 86.391111,110 87.1852099,110 C87.5168089,110 87.8571005,109.924087 88.1736151,109.763884 C88.3022152,109.698888 101.143812,103.220928 107.477173,101.234252 C108.624858,100.872461 109.261723,99.6548127 108.897398,98.5153619 C108.53512,97.3759112 107.317893,96.7409365 106.15947,97.1006962 C99.487863,99.1957826 86.7337036,105.630328 86.1927141,105.903258 C85.1191721,106.444802 84.6916984,107.74928 85.2370342,108.817134 Z" id="Path" fill="#0055A5" fill-rule="nonzero"></path>
        <path d="M63.3002457,87.1075084 C49.7161973,84.2077326 34.2796263,87.9005112 33.6307536,88.0608015 C32.4582971,88.347118 31.7609587,89.4447427 32.0754699,90.5139705 C32.3394531,91.4090616 33.2280761,92 34.1984205,92 C34.3876429,92 34.5789276,91.9760621 34.77047,91.929829 C34.9179294,91.8918099 49.7801307,88.3330368 62.297419,91.0065757 C63.474258,91.2569853 64.6645025,90.5900087 64.9416333,89.5125669 C65.2185062,88.4372373 64.4837874,87.3597955 63.3002457,87.1075084 Z" id="Path" fill="#0055A5" fill-rule="nonzero"></path>
        <path d="M63.3002457,113.107966 C49.7161973,110.20635 34.2796263,113.903007 33.6307536,114.06117 C32.4582971,114.34746 31.7609587,115.444982 32.0754699,116.51411 C32.3394531,117.409117 33.2280761,118 34.1984205,118 C34.3876429,118 34.5789276,117.976064 34.77047,117.929836 C34.9179294,117.89182 49.7801307,114.33338 62.297419,117.006669 C63.474258,117.254943 64.6645025,116.590141 64.9416333,115.5128 C65.2185062,114.437571 64.4837874,113.36023 63.3002457,113.107966 Z" id="Path" fill="#0055A5" fill-rule="nonzero"></path>
        <path d="M63.3002457,100.108258 C49.7161973,97.2068153 34.2796263,100.90114 33.6307536,101.061405 C32.4582971,101.347678 31.7609587,102.445134 32.0754699,103.514198 C32.3394531,104.409152 33.2280761,105 34.1984205,105 C34.3876429,105 34.5789276,104.976066 34.77047,104.92984 C34.9179294,104.891827 49.7801307,101.333599 62.297419,104.006728 C63.474258,104.257099 64.6645025,103.590225 64.9416333,102.512948 C65.2185062,101.437783 64.4837874,100.360507 63.3002457,100.108258 Z" id="Path" fill="#0055A5" fill-rule="nonzero"></path>
    </g>
</svg>