<?xml version="1.0" encoding="UTF-8"?>
<svg width="2517px" height="1193px" viewBox="0 0 2517 1193" version="1.1" xmlns="http://www.w3.org/2000/svg" xmlns:xlink="http://www.w3.org/1999/xlink">
    <title>Resources-Illustration-Large</title>
    <defs>
        <linearGradient x1="50%" y1="0%" x2="50%" y2="100%" id="linearGradient-1">
            <stop stop-color="#005191" offset="0%"></stop>
            <stop stop-color="#282E47" offset="100%"></stop>
        </linearGradient>
        <linearGradient x1="50%" y1="0%" x2="50%" y2="100%" id="linearGradient-2">
            <stop stop-color="#005191" offset="0%"></stop>
            <stop stop-color="#282E47" offset="100%"></stop>
        </linearGradient>
        <linearGradient x1="50%" y1="0%" x2="50%" y2="100%" id="linearGradient-3">
            <stop stop-color="#C8C8C8" offset="0%"></stop>
            <stop stop-color="#979797" offset="100%"></stop>
        </linearGradient>
    </defs>
    <g id="Resources-Illustration-Large" stroke="none" stroke-width="1" fill="none" fill-rule="evenodd">
        <rect fill="#F4F5F8" x="0" y="0" width="2517" height="1193"></rect>
        <path d="M683,1165.7632 L738.37139,1154.57813 L738.37139,1148.51735 L810.59162,1148.51735 L810.59162,1145.75355 L816.592335,1145.75355 L816.592335,1128.93254 L818.599106,1128.93254 L818.599106,1123.88026 L831.720525,1123.88026 L831.720525,1128.93254 L854.083084,1128.93254 L854.083084,1141.03743 L868.644911,1141.03743 L868.644911,1134.24454 L890.809537,1134.24454 L890.809537,1141.03743 L914.724208,1141.03743 L914.724208,1144.01618 L920.84302,1144.01618 L920.84302,1148.51735 L928.790014,1148.51735 L928.790014,1156.13401 L938.948146,1156.13401 L938.948146,1123.88026 L945.297696,1123.88026 L945.297696,1107.24889 L955.321367,1107.24889 L955.321367,1099.86808 L987.927603,1099.86808 L987.927603,1107.24889 L996.915809,1107.24889 L996.915809,1123.88026 L1002.43561,1123.88026 L1002.43561,1091.6286 L1004.41575,1091.6286 L1004.41575,1057.85341 L1007.29345,1057.85341 L1007.29345,1054.30496 L1009.73558,1054.30496 L1009.73558,1046.55517 L1028.88192,1032.3108 L1039.93646,1032.3108 L1060.25157,1048.1403 L1060.25157,1055.83079 L1065.61937,1055.83079 L1065.61937,1075.05219 L1099.78566,1075.05219 L1099.78566,1050.56438 L1115.60856,1050.56438 L1115.60856,1030.05547 L1145.44496,1030.05547 L1145.44496,1050.56438 L1151.58052,1050.56438 L1151.58052,1040.72141 L1171.21953,1040.72141 L1171.21953,1050.56438 L1187.68,1050.56438 L1187.68,1037.36719 L1190.83341,1037.36719 L1190.83341,1030.05547 L1192.6093,1030.05547 L1192.6093,1020.55044 L1197.24448,1020.55044 L1197.24448,1012.91382 L1202.47534,1012.91382 L1202.47534,1009.50281 L1205.65202,1009.50281 L1205.65202,997.623842 L1207.06119,997.623842 L1207.06119,988.574041 L1208.37728,988.574041 L1209.90187,988.574041 L1209.90187,997.623842 L1211.76897,997.623842 L1211.76897,1009.50281 L1214.66084,1009.50281 L1214.66084,1012.91382 L1220.20816,1012.91382 L1220.20816,1020.55044 L1224.82193,1020.55044 L1224.82193,1030.05547 L1227.12928,1030.05547 L1227.12928,1037.36719 L1229.88805,1037.36719 L1229.88805,1050.56438 L1232.70359,1050.56438 L1232.70359,1048.1403 L1235.91843,1048.1403 L1235.91843,1050.56438 L1238.0172,1050.56438 L1238.0172,1067.6809 L1247.61116,1067.6809 L1247.61116,1016.33984 L1264.54743,972.423093 L1264.54743,934.225349 C1266.16428,932.867339 1269.26716,932.188335 1273.85605,932.188335 C1278.44494,932.188335 1281.54781,932.867339 1283.16467,934.225349 L1283.16467,946.781044 C1318.51888,943.801443 1336.19598,943.801443 1336.19598,946.781044 C1336.19598,949.760645 1336.19598,992.517693 1336.19598,1075.05219 L1342.35365,1075.05219 L1342.35365,964.02996 L1348.4191,959.867887 L1367.7194,959.867887 L1367.7194,852.025946 C1368.45291,850.97165 1369.58514,850.033226 1371.1161,849.210676 C1372.64706,848.388126 1373.92737,847.97685 1374.95702,847.97685 L1374.95702,839.627123 C1376.08081,839.209041 1378.03478,839 1380.81894,839 C1383.6031,839 1385.79601,839.209041 1387.39768,839.627123 L1387.39768,845.320552 C1405.64331,845.108696 1416.24219,845.108696 1419.19433,845.320552 C1423.62255,845.638336 1419.19433,847.97685 1424.41228,847.97685 C1427.8909,847.97685 1429.71718,848.384984 1429.89111,849.20125 L1429.89111,929.123143 L1440.55569,929.123143 L1440.55569,934.225349 L1464.22388,934.225349 L1464.22388,954.374224 L1474.79919,949.202275 L1487.23804,949.202275 L1487.23804,943.634176 L1509.55655,943.634176 L1509.55655,946.781044 L1527.11211,946.781044 L1535.3144,949.202275 L1535.3144,1096.65615 L1538.2629,1096.65615 L1538.2629,1072.789 L1542.90568,1072.789 L1542.90568,1067.6809 L1548.16286,1067.6809 L1548.16286,1064.0314 L1558.22363,1064.0314 L1558.22363,1050.56438 L1588.06739,1050.56438 L1588.06739,1046.55517 L1603.59184,1042.89158 L1612.33915,1042.89158 L1612.33915,1030.05547 L1643.48114,1030.05547 L1643.48114,1042.89158 L1670.55075,1042.89158 L1670.55075,1134.24454 L1678.03708,1134.24454 L1678.03708,1040.72141 L1702.66597,1034.91104 L1702.66597,1023.75114 L1736.55165,1023.75114 L1736.55165,1034.91104 L1761.36165,1034.91104 L1761.36165,1148.51735 L1786.56095,1148.51735 L1786.56095,1141.03743 L1789.61946,1141.03743 L1789.61946,1134.24454 L1800.5079,1134.24454 L1800.5079,1141.03743 L1809.41093,1141.03743 L1812.48129,1136.42175 L1820,1136.42175 L1820,1193 L683,1193 L-7,1193 L178.176873,1165.7632 L178.176873,934.225349 L268.612029,932.188335 L268.612029,1165.7632 L292.657396,1165.7632 L292.657396,934.225349 L381.941559,934.225349 L381.941559,1165.7632 L397.522568,1165.7632 L397.522568,934.225349 L505.570629,934.225349 L505.570629,1171.52771 L587.580524,1171.52771 L587.580524,1134.24454 L621.521966,1134.24454 L621.521966,1099.86808 L685,1099.86808 L683,1165.7632 Z" id="Path-10" fill="url(#linearGradient-1)"></path>
        <path d="" id="Path-12" stroke="#979797"></path>
        <polyline id="Path-16" fill="url(#linearGradient-2)" points="1827 1136.42175 2517 1193 1827 1193 1820.49188 1147.76445"></polyline>
        <path d="M1416,426 L1416,432.869053 C1416,433.421338 1416.44772,433.869053 1417,433.869053 L1424.56514,433.869053 C1425.11743,433.869053 1425.56514,433.421338 1425.56514,432.869053 L1425.56514,426 C1425.56514,425.447715 1425.11743,425 1424.56514,425 L1417,425 C1416.44772,425 1416,425.447715 1416,426 Z" id="Path-14" stroke="url(#linearGradient-3)" fill="#D8D8D8"></path>
    </g>
</svg>