<?xml version="1.0" encoding="UTF-8"?>
<svg width="1138px" height="759px" viewBox="0 0 1138 759" version="1.1" xmlns="http://www.w3.org/2000/svg" xmlns:xlink="http://www.w3.org/1999/xlink">
    <title>Fair-Illustration</title>
    <defs>
        <linearGradient x1="50%" y1="0%" x2="50%" y2="54.572571%" id="linearGradient-1">
            <stop stop-color="#786450" offset="0%"></stop>
            <stop stop-color="#000000" offset="100%"></stop>
        </linearGradient>
        <radialGradient cx="50%" cy="0%" fx="50%" fy="0%" r="86.8005074%" gradientTransform="translate(0.500000,0.000000),scale(1.000000,0.814286),rotate(3.166702),translate(-0.500000,-0.000000)" id="radialGradient-2">
            <stop stop-color="#7C411B" offset="0%"></stop>
            <stop stop-color="#A17356" offset="0%"></stop>
            <stop stop-color="#AC7F61" stop-opacity="0" offset="5.8018003%"></stop>
            <stop stop-color="#AC7E60" offset="48.1930111%"></stop>
            <stop stop-color="#C39577" offset="100%"></stop>
        </radialGradient>
        <linearGradient x1="7.91294402%" y1="50.3631846%" x2="121.16193%" y2="49.3959304%" id="linearGradient-3">
            <stop stop-color="#A07756" offset="0%"></stop>
            <stop stop-color="#000000" offset="100%"></stop>
        </linearGradient>
        <linearGradient x1="50%" y1="0%" x2="50%" y2="100%" id="linearGradient-4">
            <stop stop-color="#965932" offset="0%"></stop>
            <stop stop-color="#C39577" offset="100%"></stop>
        </linearGradient>
        <linearGradient x1="118.305382%" y1="45.919238%" x2="20.0817362%" y2="34.8140701%" id="linearGradient-5">
            <stop stop-color="#191515" stop-opacity="0.740056818" offset="0%"></stop>
            <stop stop-color="#C39577" offset="100%"></stop>
        </linearGradient>
        <linearGradient x1="59.1836735%" y1="50%" x2="26.4056149%" y2="53.6387355%" id="linearGradient-6">
            <stop stop-color="#A57F66" offset="0%"></stop>
            <stop stop-color="#D1B69F" stop-opacity="0.252649694" offset="100%"></stop>
        </linearGradient>
        <linearGradient x1="50%" y1="100%" x2="50%" y2="0.963365709%" id="linearGradient-7">
            <stop stop-color="#95725C" offset="0%"></stop>
            <stop stop-color="#C39577" offset="100%"></stop>
        </linearGradient>
        <linearGradient x1="50%" y1="0%" x2="50%" y2="100%" id="linearGradient-8">
            <stop stop-color="#A46C47" offset="0%"></stop>
            <stop stop-color="#E3C7AF" offset="100%"></stop>
        </linearGradient>
        <radialGradient cx="50%" cy="50%" fx="50%" fy="50%" r="131.97187%" gradientTransform="translate(0.500000,0.500000),scale(0.511719,1.000000),rotate(90.000000),scale(1.000000,2.763611),translate(-0.500000,-0.500000)" id="radialGradient-9">
            <stop stop-color="#FFFFFF" offset="0%"></stop>
            <stop stop-color="#000000" offset="100%"></stop>
        </radialGradient>
    </defs>
    <g id="Fair-Illustration" stroke="none" stroke-width="1" fill="none" fill-rule="evenodd">
        <rect id="Rectangle" fill="#FFB351" x="0" y="0" width="1138" height="759"></rect>
        <rect id="Rectangle" x="0" y="0" width="1138" height="759"></rect>
        <g id="Group" transform="translate(442.000000, 215.000000)">
            <path d="M118.780434,-5.53665352e-05 C120.934852,2.06319072 123.39186,3.58559407 127.670344,3.9985869 C131.856929,4.40270885 137.705052,3.38719899 145.214715,0.952057322 C148.152621,1.40694198 151.051612,1.97771884 153.908257,2.65849867 C155.245503,5.45543708 157.023989,7.82167694 161.034272,9.7432313 C165.200824,11.7396629 171.829533,12.8174538 180.920398,12.976604 C182.198818,13.6662708 183.461084,14.3805578 184.707885,15.1184253 C185.223913,16.6231351 186.075921,18.1693476 187.450267,19.844424 C190.620756,23.7086686 196.841962,27.8216719 206.113884,32.1834339 C205.635125,31.5096908 205.164209,30.8477665 204.701135,30.197661 C205.320548,30.7831135 205.932713,31.3754299 206.538127,31.9746194 C206.31872,37.1087548 205.663902,41.0128396 209.846174,46.1102621 C212.675819,49.5590812 217.935505,53.2060483 225.625231,57.0511634 C226.413447,58.4584472 227.172421,59.8844889 227.901325,61.3284557 C226.01954,65.8353595 224.277482,69.2533034 226.398745,75.2700049 C227.932487,79.620274 231.828269,85.0595261 238.086091,91.5877611 C238.439597,93.5070799 238.744573,95.4434297 238.999727,97.3954945 C235.634994,101.067004 232.752995,103.662046 232.698463,110.139037 C232.658509,114.884564 234.573509,121.570599 238.443463,130.19714 C238.260329,131.243898 238.061016,132.279931 237.845774,133.305232 C233.072094,135.861846 229.183422,137.10465 226.79448,143.532896 C225.208066,147.801674 224.706729,154.371503 225.290471,163.242381 C223.750848,165.509489 222.102365,167.687158 220.351008,169.775217 C220.356086,169.681599 220.30262,169.644777 220.190065,169.664728 C214.045569,170.75386 209.618477,170.008664 204.765829,175.723282 C202.467778,178.429534 200.314068,182.681542 198.304699,188.479306 C179.082238,200.130783 154.617055,206 127.979532,206 C66.1349441,206 16,174.362957 16,112.193435 C16,110.490378 16.0376222,108.796155 16.1120766,107.111559 C20.1653854,101.636847 22.6687569,97.0488341 23.6220551,93.3473573 C25.2356179,87.0821971 23.1249144,83.8259519 20.8235201,79.4108265 C21.7653688,76.2935075 22.8386102,73.2340485 24.0362927,70.2383301 C31.4804815,64.8196836 36.3474743,60.0768184 38.6374398,56.0105507 C41.5797159,50.7859818 40.7594403,47.2287318 39.7582126,42.8587835 C43.3729868,38.2149307 47.3438156,33.8646705 51.6284422,29.8483217 L51.2215095,30.2649227 C61.0580426,27.4149302 67.8427074,24.330889 71.5755037,21.0127992 C74.9105252,18.0482922 75.9687618,15.2755261 76.4855175,12.2087751 C79.9913133,10.379091 83.6057853,8.73154328 87.3163942,7.2771801 C90.5431015,8.91390259 93.5965467,9.96300521 98.5114162,8.68386735 C102.337439,7.68811138 107.115638,5.00997266 112.846013,0.649451191 C114.808272,0.378312853 116.78697,0.162885785 118.780434,-5.53665352e-05 Z" id="Combined-Shape" fill="url(#linearGradient-1)"></path>
            <path d="M128.169872,264.939091 C131.226715,264.9442 154.872876,266.850451 166.606418,248.9294 C178.339959,231.008349 195,173.241778 195,146.154751 C195,119.067724 154.879022,110 129.109299,110 C103.339575,110 63,119.067724 63,146.154751 C63,173.241778 78.5092781,231.056188 90.1876018,248.9294 C101.865925,266.802612 125.113029,264.933982 128.169872,264.939091 Z" id="Oval-Copy-5" fill="#C39577"></path>
            <path d="M98.0245674,155.049566 C99.2966989,155.049566 103.246749,159.583186 108.218683,158.359351 C112.191415,157.381467 118.689481,161.541925 119.515613,164.15107 C121.552141,170.582974 125.593566,177.001902 124.403464,184.568899 C123.511023,190.243284 122.610291,203.929132 116.886323,211.26769 C113.070345,216.160062 113.070345,220.737499 116.886323,225 L128.082624,225 L139.552256,225 C143.44142,219.886341 143.44142,215.308905 139.552256,211.26769 C133.71851,205.205868 132.589992,190.148992 131.705772,184.56409 C128.305426,163.086836 153.278355,161.795646 154.788579,157.754119 C157.018911,151.785504 141.160587,162.981192 128.082624,158.640055 C115.004661,154.298919 97.2488984,155.049566 98.0245674,155.049566 Z" id="Path-26" fill="url(#radialGradient-2)"></path>
            <g id="Group-4" transform="translate(132.000000, 156.000000)">
                <g id="Group-4-Copy" transform="translate(25.500000, 22.500000) scale(-1, 1) translate(-25.500000, -22.500000) translate(1.000000, 12.000000)">
                    <path d="M48.1898482,19.6672536 L35.9696541,20.7690346 L38.978736,18.7412787 L30.5127902,21 L32.0378219,19.0612716 L23.0435993,20.7690346 L25.1708875,19.0612716 L14.9217853,19.2950973 L18.3467537,17.5553615 C14.9511985,16.6636265 12.3978808,15.8652842 10.6868006,15.1603348 C8.12018034,14.1029106 3.58849303,10.2185711 4.2070302,10.698812 C6.04980192,11.6719346 8.68271299,12.3550675 12.1057634,12.7482107 C3.56040089,4.02612744 -0.193858876,0.141818015 0.8429841,1.09528247 C5.30901299,4.01433878 8.38970512,5.01192037 10.0850605,4.08802722 L8.73566361,1.09528247 C10.1816182,2.21478875 11.2660842,2.91630334 11.9890615,3.19982623 C12.7120388,3.48334913 13.7965047,3.63240322 15.2424593,3.64698852 L15.2424593,-4.54747351e-13 C16.3492549,1.46499942 17.1808051,2.37799469 17.73711,2.73898581 C19.3949779,3.81479077 20.9719749,3.64698852 21.8831519,3.64698852 C23.2529532,3.64698852 23.5303776,2.67528756 22.7154252,0.731885644 C22.0471254,-0.00507054785 24.4517625,1.11364331 29.9293363,4.08802722 C33.0666689,5.79163394 40.0597104,10.3744161 43.2183439,13.3236706 C44.7890974,14.7903023 46.4462655,16.9048299 48.1898482,19.6672536 Z" id="Combined-Shape" fill="#000000"></path>
                    <g id="Group-2" transform="translate(12.553485, 6.000000)">
                        <path d="M34.1515152,12 L25.8786776,11.0832098 C21.431071,11.7374187 16.3659119,11.7374187 10.6832,11.0832098 C5.00048824,10.4290009 1.43942156,6.8826574 0,0.444179349 C8.59997045,-0.452629617 15.5881583,0.00857083865 20.9645634,1.82778071 C26.3409686,3.64699059 30.7366191,7.03773035 34.1515152,12 Z" id="Path-21" fill="#FFFFFF"></path>
                        <g id="Group-3" transform="translate(8.243469, 0.000000)">
                            <path d="M5.97135952,9 C9.66071024,9 12.6354482,7.56222555 12.6354482,4.58435982 C12.6354482,0.936000759 10.3751892,0.936000759 6.5671736,0.433031038 C2.75915795,-0.0699386837 2.3254142,-0.0989115799 0.660721403,3 C0.146633061,5.05530561 2.28200879,9 5.97135952,9 Z" id="Oval" fill="#714E21"></path>
                            <path d="M7.03704701,6 C8.97232547,6 10.9651143,5.45869034 10.5411787,3 C10.117243,0.54130966 8.97232547,0 7.03704701,0 C5.10176854,0 3.53291536,1.34314575 3.53291536,3 C3.53291536,4.65685425 5.10176854,6 7.03704701,6 Z" id="Oval-Copy-6" fill="#1F1201"></path>
                        </g>
                    </g>
                </g>
                <path d="M50.8991796,8.60978826 C35.0160301,12.4247326 24.8766012,14.5799348 20.4808927,15.0753947 C16.0851843,15.5708547 10.7635094,14.7704811 4.51586802,12.674274 C3.23253423,11.9107411 2.40127035,11.3097461 2.02207638,10.8712888 C0.79126564,9.75366386 1.63193884,9.03583598 3.51694382,7.97470509 C14.5946557,12.9678428 30.6403817,12.3229719 51.6541216,6.04009232 L50.8991796,8.60978826 Z" id="Path-27-Copy" fill="url(#linearGradient-3)" transform="translate(26.548638, 10.628783) scale(1, -1) rotate(12.000000) translate(-26.548638, -10.628783) "></path>
            </g>
            <g id="Group-4-Copy-2" transform="translate(98.500000, 172.500000) scale(-1, 1) translate(-98.500000, -172.500000) translate(72.000000, 156.000000)">
                <g id="Group-4-Copy" transform="translate(27.500000, 22.500000) scale(-1, 1) translate(-27.500000, -22.500000) translate(3.000000, 12.000000)">
                    <path d="M48.1898482,19.6672536 L35.9696541,20.7690346 L38.978736,18.7412787 L30.5127902,21 L32.0378219,19.0612716 L23.0435993,20.7690346 L25.1708875,19.0612716 L14.9217853,19.2950973 L18.3467537,17.5553615 C14.9511985,16.6636265 12.3978808,15.8652842 10.6868006,15.1603348 C8.12018034,14.1029106 3.58849303,10.2185711 4.2070302,10.698812 C6.04980192,11.6719346 8.68271299,12.3550675 12.1057634,12.7482107 C3.56040089,4.02612744 -0.193858876,0.141818015 0.8429841,1.09528247 C5.30901299,4.01433878 8.38970512,5.01192037 10.0850605,4.08802722 L8.73566361,1.09528247 C10.1816182,2.21478875 11.2660842,2.91630334 11.9890615,3.19982623 C12.7120388,3.48334913 13.7965047,3.63240322 15.2424593,3.64698852 L15.2424593,-4.54747351e-13 C16.3492549,1.46499942 17.1808051,2.37799469 17.73711,2.73898581 C19.3949779,3.81479077 20.9719749,3.64698852 21.8831519,3.64698852 C23.2529532,3.64698852 23.5303776,2.67528756 22.7154252,0.731885644 C22.0471254,-0.00507054785 24.4517625,1.11364331 29.9293363,4.08802722 C33.0666689,5.79163394 40.0597104,10.3744161 43.2183439,13.3236706 C44.7890974,14.7903023 46.4462655,16.9048299 48.1898482,19.6672536 Z" id="Combined-Shape" fill="#000000"></path>
                    <g id="Group-2" transform="translate(12.553485, 6.000000)">
                        <path d="M34.1515152,12 L25.8786776,11.0832098 C21.431071,11.7374187 16.3659119,11.7374187 10.6832,11.0832098 C5.00048824,10.4290009 1.43942156,6.8826574 0,0.444179349 C8.59997045,-0.452629617 15.5881583,0.00857083865 20.9645634,1.82778071 C26.3409686,3.64699059 30.7366191,7.03773035 34.1515152,12 Z" id="Path-21" fill="#FFFFFF"></path>
                        <g id="Group-3" transform="translate(8.243469, 0.000000)">
                            <path d="M5.97135952,9 C9.66071024,9 12.6354482,7.56222555 12.6354482,4.58435982 C12.6354482,0.936000759 10.3751892,0.936000759 6.5671736,0.433031038 C2.75915795,-0.0699386837 2.3254142,-0.0989115799 0.660721403,3 C0.146633061,5.05530561 2.28200879,9 5.97135952,9 Z" id="Oval" fill="#714E21"></path>
                            <path d="M7.03704701,6 C8.97232547,6 10.9651143,5.45869034 10.5411787,3 C10.117243,0.54130966 8.97232547,0 7.03704701,0 C5.10176854,0 3.53291536,1.34314575 3.53291536,3 C3.53291536,4.65685425 5.10176854,6 7.03704701,6 Z" id="Oval-Copy-6" fill="#1F1201"></path>
                        </g>
                    </g>
                </g>
                <path d="M50.8991796,8.60978826 C35.0160301,12.4247326 24.8766012,14.5799348 20.4808927,15.0753947 C16.0851843,15.5708547 10.7635094,14.7704811 4.51586802,12.674274 C3.23253423,11.9107411 2.40127035,11.3097461 2.02207638,10.8712888 C0.791265639,9.75366386 1.63193884,9.03583598 3.51694382,7.97470509 C14.5946557,12.9678428 30.6403817,12.3229719 51.6541216,6.04009232 L50.8991796,8.60978826 Z" id="Path-27-Copy" fill="url(#linearGradient-3)" transform="translate(26.548638, 10.628783) scale(1, -1) rotate(12.000000) translate(-26.548638, -10.628783) "></path>
            </g>
            <path d="M119,223 C119.578525,221 120.745192,220 122.5,220 C124.254808,220 125.421475,221 126,223" id="Path-24-Copy-3" fill="url(#linearGradient-4)"></path>
            <path d="M131,223 C131.578525,221 132.745192,220 134.5,220 C136.254808,220 137.421475,221 138,223" id="Path-24-Copy-4" fill="url(#linearGradient-4)"></path>
            <path d="M113.724919,178.80393 C118.021005,183.146166 120.560583,185.938341 121.343654,187.180454 C124.490843,192.172552 99.4275573,193.363222 97.7459606,195.783755 L94.0274037,208.646666 C93.1184601,210.880735 88.8522746,228.765055 108.312197,224.33975 C111.968672,223.508245 119.091935,225.200211 126.958428,225.937781 C130.855953,226.303216 131.814232,224.910161 134.824414,225.594294 C137.377247,226.174483 139.382629,224.910161 140,224.58721 C139.141301,223.413726 127.175345,224.928014 120.456073,224.33975 C115.241727,223.88324 114.204092,220.046537 114.100121,219.567418 C113.862577,218.472767 113.978738,216.789586 114.448605,214.517875 C117.802105,209.959297 120.435431,204.494528 122.348582,198.123568 C123.041162,193.801211 123.904034,188.069787 124.937198,180.929299 L126.126986,170 C124.583234,175.359157 120.449212,178.293801 113.724919,178.80393 Z" id="Path-25" fill="url(#linearGradient-5)" opacity="0.377557664"></path>
            <path d="M117.982399,220.730144 C117.680325,221.768657 115.471024,219.578571 115.078922,218.082333 C114.686821,216.586094 115.819226,213.090288 117.072797,214.221444 C117.592747,214.69062 115.793276,216.502764 116.278114,217.884746 C116.962195,219.834651 118.159181,220.12238 117.982399,220.730144 Z" id="Path-27" fill="url(#linearGradient-6)"></path>
            <path d="M110,242 C114.273472,237.713654 117.483366,235.723966 119.629683,236.030936 C123.903155,236.642136 127.113049,237.713414 129.259366,239.24477 C131.465587,237.712539 134.755693,236.641261 139.129683,236.030936 C141.335904,235.723091 144.62601,237.712779 149,242 L110,242 Z" id="Path-24" fill="#EF4646"></path>
            <path d="M110,242 C116.297456,249.333333 122.70539,253 129.223802,253 C135.742215,253 142.334281,249.333333 149,242" id="Path-29" fill="#EF4646"></path>
            <path d="M127.344904,244 C132.546077,243.988145 136.285327,243.818772 138.562654,243.491883 C140.749191,243.178025 140.363253,242.202722 137.933216,242.056549 C136.313191,241.9591 133.656027,242.222436 129.961725,242.846556 C125.779964,242.136321 123.045952,241.872985 121.759688,242.056549 C120.473425,242.240113 120.820536,242.718557 122.801022,243.491883 L127.344904,244 Z" id="Path-28" fill="#9A6F53"></path>
            <path d="M147.539348,198.03992 C154.618044,194.806915 152.116378,197.599047 156.364657,195.472963 C159.196842,194.055573 165.07529,193.661119 174,194.289598 C164.951759,195.436067 157.838178,196.833977 152.659259,198.48333 C147.48034,200.132683 145.773703,204.63824 147.539348,212 C142.820217,204.848617 142.820217,200.195258 147.539348,198.03992 Z" id="Path-30" fill="url(#linearGradient-7)" opacity="0.482933408"></path>
            <path d="" id="Path-31" stroke="#FF443B"></path>
            <path d="M63,137.409091 C68.3349066,113.80303 91.6686333,102 133.00118,102 C174.333727,102 195,113.80303 195,137.409091 C189.500026,139.893939 184.000052,141.136364 178.500077,141.136364 C173.000103,141.136364 167.500129,139.893939 162.000155,137.409091 C156.500181,139.893939 151.000207,141.136364 145.500232,141.136364 C140.000258,141.136364 134.500284,139.893939 129.00031,137.409091 C123.500336,141.136364 118.000361,143 112.500387,143 C107.000413,143 101.500439,141.136364 96.0004648,137.409091 C90.5004906,141.136364 85.0005164,143 79.5005422,143 C74.000568,143 68.5003873,141.136364 63,137.409091 Z" id="Path-32" fill="#000000"></path>
            <path d="M92,250 C103.964746,259.28334 116.113785,263.92501 128.447118,263.92501 C140.780452,263.92501 153.298079,259.28334 166,250 C159.711628,257.979848 156.567442,268.391789 156.567442,281.235823 C156.567442,294.079857 159.711628,307.001249 166,320 L92,320 C98.2883723,308.333333 101.432558,296.666667 101.432558,285 C101.432558,273.333333 98.2883723,261.666667 92,250 Z" id="Path-34" fill="url(#linearGradient-8)"></path>
            <path d="M15.7953018,346.552519 C17.6065893,330.672599 29.4672835,319.317007 51.3773844,312.485744 C73.2874853,305.654481 99.2949118,305.203322 129.399664,311.132267 C164.592009,306.908647 190.87384,307.359806 208.245157,312.485744 C225.616473,317.611681 239.346601,328.967273 249.435539,346.552519 L249.435539,544 L17.3841543,544 L15.7953018,346.552519 Z" id="Path-35" fill="#005191"></path>
            <polyline id="Path-36" fill="#FFFFFF" points="97 294 129.650101 394 163 294 128.023582 304.597139"></polyline>
            <ellipse id="Oval" stroke="#979797" stroke-width="0.2" fill="#D8D8D8" cx="132.5" cy="308.5" rx="1.5" ry="3.5"></ellipse>
            <path d="M97,294 C98.73584,310.666667 104.177523,327.333333 113.32505,344 C122.472577,360.666667 127.914261,377.333333 129.650101,394 C131.502574,377.333333 137.06089,360.666667 146.32505,344 C155.58921,327.333333 161.147527,310.666667 163,294" id="Path-36-Copy" stroke="#87A3B9" stroke-width="4"></path>
            <rect id="Rectangle" fill="url(#radialGradient-9)" x="0" y="413" width="256" height="131" rx="19"></rect>
            <g id="Apple_logo_grey" transform="translate(112.000000, 459.000000)" fill-rule="nonzero">
                <g id="g186" transform="translate(16.500000, 25.000000) scale(-1, 1) rotate(-180.000000) translate(-16.500000, -25.000000) translate(0.000000, 10.000000)" fill="#615E5E" fill-opacity="0.85">
                    <path d="M27.5548084,18.5507692 C27.5092753,23.5097976 31.7033798,25.8905263 31.893101,26.0065992 C29.5329686,29.3776518 25.8599652,29.8394737 24.5496237,29.8938057 C21.425547,30.2025101 18.4507178,28.0983806 16.8671777,28.0983806 C15.2836376,28.0983806 12.8349686,29.8493522 10.2446411,29.7999595 C6.83471777,29.7505668 3.69546341,27.8662348 1.93990941,24.8878543 C-1.59902439,18.8940486 1.03683624,10.0107692 4.48217422,5.14558704 C6.16942857,2.76732794 8.17794425,0.0877732794 10.8188641,0.186558704 C13.3636585,0.28534413 14.3249129,1.79182186 17.3958676,1.79182186 C20.4668223,1.79182186 21.3319512,0.186558704 24.0209338,0.233481781 C26.7554495,0.28534413 28.4907666,2.66360324 30.1653728,5.04927126 C32.098,7.81032389 32.8973589,10.4824696 32.942892,10.6232389 C32.8821812,10.6479352 27.6104599,12.6211741 27.5548084,18.5507692" id="path188"></path>
                </g>
                <path d="M22.9048768,6.22569526 C24.2832668,4.57712254 25.2138077,2.28481435 24.9575083,0 C22.9718537,0.0787054569 20.5684883,1.3070902 19.1427631,2.95566292 C17.8664011,4.41266124 16.7467645,6.74663571 17.0501723,8.98493272 C19.2646642,9.15446009 21.5262599,7.87184468 22.9048768,6.22569526" id="path190" fill="#767474"></path>
            </g>
        </g>
        <path d="M732,697 L780,697 C782.761424,697 785,699.238576 785,702 L785,759 L785,759 L727,759 L727,702 C727,699.238576 729.238576,697 732,697 Z" id="Rectangle" fill-opacity="0.85" fill="#876969"></path>
    </g>
</svg>